<svg xmlns="http://www.w3.org/2000/svg" version="1.1" xmlns:xlink="http://www.w3.org/1999/xlink" xmlns:svgjs="http://svgjs.dev/svgjs" width="1000" height="1000" viewBox="0 0 1000 1000"><rect width="1000" height="1000" fill="#8dbdff"></rect><g transform="matrix(0.7,0,0,0.7,149.57575757575756,282.1265587044535)"><svg viewBox="0 0 396 247" data-background-color="#8dbdff" preserveAspectRatio="xMidYMid meet" height="623" width="1000" xmlns="http://www.w3.org/2000/svg" xmlns:xlink="http://www.w3.org/1999/xlink"><g id="tight-bounds" transform="matrix(1,0,0,1,0.2400000000000091,-0.09999999999999432)"><svg viewBox="0 0 395.52 247.2" height="247.2" width="395.52"><g><svg></svg></g><g><svg viewBox="0 0 395.52 247.2" height="247.2" width="395.52"><g transform="matrix(1,0,0,1,75.54432,58.75829794336809)"><svg viewBox="0 0 244.43135999999998 129.6834041132638" height="129.6834041132638" width="244.43135999999998"><g><svg viewBox="0 0 244.43135999999998 129.6834041132638" height="129.6834041132638" width="244.43135999999998"><g><svg viewBox="0 0 244.43135999999998 129.6834041132638" height="129.6834041132638" width="244.43135999999998"><g><svg viewBox="0 0 244.43135999999998 129.6834041132638" height="129.6834041132638" width="244.43135999999998"><g id="textblocktransform"><svg viewBox="0 0 244.43135999999998 129.6834041132638" height="129.6834041132638" width="244.43135999999998" id="textblock"><g><svg viewBox="0 0 244.43135999999998 129.6834041132638" height="129.6834041132638" width="244.43135999999998"><g transform="matrix(1,0,0,1,0,0)"><svg width="244.43135999999998" viewBox="2.3499999046325684 -35.29999923706055 67.0999984741211 35.599998474121094" height="129.6834041132638" data-palette-color="#374151"><path d="M15.35 0.3Q11.45 0.3 7.88-0.95 4.3-2.2 2.35-4.25L2.35-4.25 3.8-7.1Q5.7-5.2 8.85-4.03 12-2.85 15.35-2.85L15.35-2.85Q20.05-2.85 22.4-4.58 24.75-6.3 24.75-9.05L24.75-9.05Q24.75-11.15 23.48-12.4 22.2-13.65 20.35-14.33 18.5-15 15.2-15.8L15.2-15.8Q11.25-16.8 8.9-17.73 6.55-18.65 4.88-20.55 3.2-22.45 3.2-25.7L3.2-25.7Q3.2-28.35 4.6-30.53 6-32.7 8.9-34 11.8-35.3 16.1-35.3L16.1-35.3Q19.1-35.3 21.98-34.48 24.85-33.65 26.95-32.2L26.95-32.2 25.7-29.25Q23.5-30.7 21-31.43 18.5-32.15 16.1-32.15L16.1-32.15Q11.5-32.15 9.18-30.38 6.85-28.6 6.85-25.8L6.85-25.8Q6.85-23.7 8.13-22.43 9.4-21.15 11.33-20.48 13.25-19.8 16.5-19L16.5-19Q20.35-18.05 22.73-17.13 25.1-16.2 26.75-14.33 28.4-12.45 28.4-9.25L28.4-9.25Q28.4-6.6 26.98-4.42 25.55-2.25 22.6-0.98 19.65 0.3 15.35 0.3L15.35 0.3ZM36.45 0L36.45-35 50.7-35Q56.25-35 60.5-32.77 64.75-30.55 67.1-26.58 69.45-22.6 69.45-17.5L69.45-17.5Q69.45-12.4 67.1-8.43 64.75-4.45 60.5-2.23 56.25 0 50.7 0L50.7 0 36.45 0ZM40.15-3.2L50.5-3.2Q55.1-3.2 58.55-5.03 62-6.85 63.9-10.08 65.8-13.3 65.8-17.5L65.8-17.5Q65.8-21.7 63.9-24.93 62-28.15 58.55-29.98 55.1-31.8 50.5-31.8L50.5-31.8 40.15-31.8 40.15-3.2Z" opacity="1" transform="matrix(1,0,0,1,0,0)" fill="#374151" class="wordmark-text-0" data-fill-palette-color="primary" id="text-0"></path></svg></g></svg></g></svg></g></svg></g></svg></g></svg></g></svg></g><path d="M245.191 52.758L245.191 6.604 11.199 6.604 11.199 240.596 245.191 240.596 245.191 194.442 233.496 194.442 233.496 228.901 22.894 228.901 22.894 18.299 233.496 18.299 233.496 52.758Z" fill="#374151" stroke="transparent" data-fill-palette-color="primary"></path></svg></g><defs></defs></svg><rect width="395.52" height="247.2" fill="none" stroke="none" visibility="hidden"></rect></g></svg></g></svg>